<?xml version="1.0" standalone="no"?>
<!DOCTYPE svg PUBLIC "-//W3C//DTD SVG 20010904//EN"
 "http://www.w3.org/TR/2001/REC-SVG-20010904/DTD/svg10.dtd">
<svg version="1.0" xmlns="http://www.w3.org/2000/svg"
 width="672.000000pt" height="371.000000pt" viewBox="0 0 672.000000 371.000000"
 preserveAspectRatio="xMidYMid meet">

<g transform="translate(0.000000,371.000000) scale(0.100000,-0.100000)"
fill="#000000" stroke="none">
<path d="M5750 2198 c-11 -18 -21 -37 -23 -42 -2 -5 -17 -1 -34 8 -74 38 -105
-2 -33 -43 l40 -22 -21 -41 c-14 -27 -17 -44 -10 -51 16 -16 40 0 58 37 l16
35 40 -20 c21 -11 45 -18 53 -15 26 10 14 35 -26 56 -22 11 -40 23 -40 26 0 2
8 21 19 42 32 64 -2 90 -39 30z"/>
<path d="M318 2043 c-3 -37 -4 -38 -45 -41 -43 -3 -43 -3 -43 -43 0 -39 0 -39
-40 -39 l-40 0 0 -121 0 -121 40 4 39 3 3 -40 c3 -39 4 -40 46 -43 42 -3 42
-3 42 -43 l0 -39 193 0 c107 0 196 2 198 4 2 2 3 74 1 160 l-3 156 -114 0
-115 0 0 -40 0 -40 40 0 41 0 -3 -82 -3 -83 -80 0 -80 0 -3 43 -3 42 -42 0
-42 0 3 125 3 125 40 0 c39 0 39 0 39 40 l0 40 160 0 160 0 0 35 0 35 -194 0
-195 0 -3 -37z"/>
<path d="M2840 2040 l0 -40 -40 0 -40 0 0 -75 0 -75 39 0 c40 0 40 0 43 -42
l3 -43 160 -2 160 -2 0 -83 0 -83 -122 -3 -122 -3 -3 43 -3 43 -77 3 -78 3 0
-41 0 -40 40 0 40 0 0 -40 0 -40 200 0 200 0 0 40 0 40 40 0 40 0 0 80 0 80
-40 0 -40 0 0 40 0 40 -160 0 -160 0 0 85 0 85 125 0 125 0 0 -40 0 -40 75 0
75 0 0 35 c0 34 -1 35 -40 35 l-40 0 0 40 0 40 -200 0 -200 0 0 -40z"/>
<path d="M3660 2000 l0 -80 -86 0 -85 0 3 -37 3 -38 80 0 80 0 3 -162 2 -163
75 0 75 0 2 163 3 162 75 1 75 1 6 31 c3 17 4 34 1 37 -3 3 -41 5 -84 5 l-78
0 0 80 0 80 -75 0 -75 0 0 -80z"/>
<path d="M6032 1968 c-28 -28 -1 -75 38 -63 14 4 20 15 20 35 0 36 -33 53 -58
28z"/>
<path d="M890 1885 c0 -26 4 -35 18 -35 9 -1 81 -1 160 0 l142 1 0 -46 0 -45
-160 0 -160 0 0 -39 c0 -40 0 -40 -42 -43 -42 -3 -43 -4 -46 -40 l-3 -38 45 0
46 0 0 -40 0 -40 240 0 240 0 0 160 0 160 -45 0 -45 0 0 40 0 40 -195 0 -195
0 0 -35z m320 -250 l0 -46 -122 3 -123 3 -3 43 -3 42 125 0 126 0 0 -45z"/>
<path d="M1460 1720 l0 -200 35 0 35 0 2 163 3 162 40 0 40 0 3 -162 2 -163
75 0 75 0 2 163 3 162 45 0 45 0 3 -162 2 -163 75 0 75 0 0 160 0 160 -40 0
-40 0 0 40 0 40 -240 0 -240 0 0 -200z"/>
<path d="M2190 1880 l0 -40 -40 0 -40 0 0 -120 0 -120 40 0 40 0 0 -40 0 -40
200 0 200 0 0 35 0 35 -162 2 -163 3 -3 43 -3 42 205 0 206 0 0 80 0 80 -40 0
-40 0 0 40 0 40 -200 0 -200 0 0 -40z m325 -77 c0 -24 -3 -43 -7 -43 -5 0 -62
0 -128 0 l-120 0 0 38 c0 21 3 42 7 46 4 3 61 5 127 4 l121 -3 0 -42z"/>
<path d="M4149 1898 c-1 -13 -1 -31 0 -40 2 -15 -6 -18 -43 -18 l-46 0 0 -120
0 -120 45 0 44 0 -2 -37 -2 -38 198 -3 197 -2 0 39 c0 40 0 40 43 43 l42 3 0
115 0 115 -42 3 c-43 3 -43 3 -43 43 l0 39 -195 0 -195 0 -1 -22z m321 -180
l0 -128 -125 0 -125 0 0 128 0 127 125 0 125 0 0 -127z"/>
<path d="M4800 1720 l0 -200 75 0 74 0 3 123 3 122 35 0 c33 0 35 2 38 38 l3
37 -40 0 -41 0 0 40 0 40 -75 0 -75 0 0 -200z"/>
<path d="M5040 1885 c0 -38 -1 -38 120 -38 121 0 120 0 120 38 l0 35 -120 0
-120 0 0 -35z"/>
<path d="M5450 1880 l0 -40 -40 0 -40 0 0 -120 0 -120 40 0 40 0 0 -40 0 -40
200 0 200 0 0 35 0 35 -162 2 -163 3 -3 43 -3 42 205 0 206 0 0 80 0 80 -40 0
-40 0 0 40 0 40 -200 0 -200 0 0 -40z m321 -37 c1 -5 3 -25 4 -45 l4 -38 -130
0 -129 0 0 38 c0 21 3 42 7 45 9 10 243 9 244 0z"/>
<path d="M6185 1896 c-20 -14 -17 -44 6 -59 24 -15 49 -1 49 27 0 32 -30 50
-55 32z"/>
<path d="M6086 1858 c3 -5 10 -6 15 -3 13 9 11 12 -6 12 -8 0 -12 -4 -9 -9z"/>
<path d="M6065 1840 c-10 -17 14 -38 36 -33 32 9 30 20 -3 15 -26 -4 -30 -2
-25 12 7 18 2 22 -8 6z"/>
<path d="M6105 1840 c-3 -6 1 -7 9 -4 18 7 21 14 7 14 -6 0 -13 -4 -16 -10z"/>
</g>
</svg>
